<svg xmlns="http://www.w3.org/2000/svg" viewBox="0 0 512 512"><rect width="512" height="512" rx="113" fill="#2f6136"/><path d="M361.4 214.9Q361.4 233.4 353.1 248.4Q344.8 263.4 329.7 273.4Q314.5 283.4 293.5 287.2Q287.1 288.3 281.4 289.5Q275.6 290.7 269.8 291.6Q264 292.4 257 292.4Q244.1 292.4 233.3 290.7Q222.4 288.9 213.7 285.6Q204.9 282.3 198.1 277.7L199.4 265.1Q205.2 269.4 212.4 272.2Q219.7 275 228.1 276.4Q236.6 277.7 245.8 277.7Q272.4 277.7 287.7 262.3Q303 246.9 303 216.2Q303 192.9 293.6 174.8Q284.2 156.7 267.5 146.4Q250.8 136 228.8 136H212.1V363.4Q212.1 367.5 214.1 369.8Q216 372.2 220.2 373.3L234 375.7Q237.5 377 238.8 378.6Q240.1 380.2 240.1 382.8Q240.1 389.1 231.8 389.1H136.1Q131.9 389.1 129.8 387.4Q127.8 385.6 127.8 382.8Q127.8 377.6 133.9 375.7L146.2 373.3Q150.7 372.2 152.8 369.8Q155 367.5 155 363.4V147.7Q155 144.1 152.8 141.9Q150.6 139.8 146.2 138.7L133.9 136.3Q127.8 134.4 127.8 129.2Q127.8 126.2 129.8 124.6Q131.9 122.9 136.1 122.9H230.2Q272.1 122.9 301.4 134.5Q330.7 146.2 346 166.9Q361.4 187.6 361.4 214.9ZM252.9 286 307.9 279.7 359 362.6Q362.7 368.5 366.6 371.3Q370.6 374.1 376.6 375.7Q381 377 382.6 378.6Q384.2 380.2 384.2 382.8Q384.2 385.6 382.1 387.4Q380 389.1 375.7 389.1H292.6Q284.4 389.1 284.4 382.8Q284.4 380.9 285.5 379.7Q286.5 378.5 288.9 377.5L295.3 375.9Q299.6 374.2 300.3 371.6Q301 368.9 298 363.7Z" fill="#f7f8f4"/></svg>
